<svg xmlns="http://www.w3.org/2000/svg" width="32.5" height="32.5" viewBox="0 0 48 48" version="1.1"><path d="M 0 24.018 L 0 48.036 24.250 47.768 L 48.500 47.500 48.768 23.750 L 49.036 0 24.518 0 L 0 0 0 24.018 M 0.431 24.500 C 0.432 37.700, 0.574 42.962, 0.747 36.193 C 0.921 29.424, 0.920 18.624, 0.746 12.193 C 0.572 5.762, 0.431 11.300, 0.431 24.500 M 6 9 C 6 11.667, 6.333 12, 9 12 C 11.667 12, 12 11.667, 12 9 C 12 6.333, 11.667 6, 9 6 C 6.333 6, 6 6.333, 6 9 M 16 9 C 16 10.897, 16.667 11, 29 11 C 41.333 11, 42 10.897, 42 9 C 42 7.103, 41.333 7, 29 7 C 16.667 7, 16 7.103, 16 9 M 6 19 C 6 21.667, 6.333 22, 9 22 C 11.667 22, 12 21.667, 12 19 C 12 16.333, 11.667 16, 9 16 C 6.333 16, 6 16.333, 6 19 M 16 19 C 16 20.897, 16.667 21, 29 21 C 41.333 21, 42 20.897, 42 19 C 42 17.103, 41.333 17, 29 17 C 16.667 17, 16 17.103, 16 19 M 6 29 C 6 31.667, 6.333 32, 9 32 C 11.667 32, 12 31.667, 12 29 C 12 26.333, 11.667 26, 9 26 C 6.333 26, 6 26.333, 6 29 M 16 29 C 16 30.897, 16.667 31, 29 31 C 41.333 31, 42 30.897, 42 29 C 42 27.103, 41.333 27, 29 27 C 16.667 27, 16 27.103, 16 29 M 6 39 C 6 41.667, 6.333 42, 9 42 C 11.667 42, 12 41.667, 12 39 C 12 36.333, 11.667 36, 9 36 C 6.333 36, 6 36.333, 6 39 M 16 39 C 16 40.897, 16.667 41, 29 41 C 41.333 41, 42 40.897, 42 39 C 42 37.103, 41.333 37, 29 37 C 16.667 37, 16 37.103, 16 39" stroke="none" fill="#2c3434" fill-rule="evenodd"/><path d="M 6 9 C 6 11.667, 6.333 12, 9 12 C 11.667 12, 12 11.667, 12 9 C 12 6.333, 11.667 6, 9 6 C 6.333 6, 6 6.333, 6 9 M 16 9 C 16 10.897, 16.667 11, 29 11 C 41.333 11, 42 10.897, 42 9 C 42 7.103, 41.333 7, 29 7 C 16.667 7, 16 7.103, 16 9 M 6 19 C 6 21.667, 6.333 22, 9 22 C 11.667 22, 12 21.667, 12 19 C 12 16.333, 11.667 16, 9 16 C 6.333 16, 6 16.333, 6 19 M 16 19 C 16 20.897, 16.667 21, 29 21 C 41.333 21, 42 20.897, 42 19 C 42 17.103, 41.333 17, 29 17 C 16.667 17, 16 17.103, 16 19 M 6 29 C 6 31.667, 6.333 32, 9 32 C 11.667 32, 12 31.667, 12 29 C 12 26.333, 11.667 26, 9 26 C 6.333 26, 6 26.333, 6 29 M 16 29 C 16 30.897, 16.667 31, 29 31 C 41.333 31, 42 30.897, 42 29 C 42 27.103, 41.333 27, 29 27 C 16.667 27, 16 27.103, 16 29 M 6 39 C 6 41.667, 6.333 42, 9 42 C 11.667 42, 12 41.667, 12 39 C 12 36.333, 11.667 36, 9 36 C 6.333 36, 6 36.333, 6 39 M 16 39 C 16 40.897, 16.667 41, 29 41 C 41.333 41, 42 40.897, 42 39 C 42 37.103, 41.333 37, 29 37 C 16.667 37, 16 37.103, 16 39" stroke="none" fill="#cce4dc" fill-rule="evenodd"/></svg>